<svg xmlns="http://www.w3.org/2000/svg" width="1140" height="1100" viewBox="0 0 301.6 291">
  <path fill="rgba(0, 0, 0, 0.05)" d="M89.44 67.15a52.6 52.6 0 0 1-5.42-.68c-2.28-.38-2.27-.38-2.27-.58 0-.17.41-2.07.46-2.12.02-.02.3.02.62.09 3.36.7 7.73 1.13 9.78.95a5.9 5.9 0 0 0 2.25-.47c.6-.27.74-.56.79-1.63.04-1.08-.05-1.7-.67-4.81-.6-3.04-.71-3.95-.65-5.23.1-2.04.85-3.16 2.46-3.7.54-.17.82-.2 1.85-.2 1.38 0 1.6.04 5.1.77 3.76.79 5.01.88 5.73.44.46-.28.6-.69.59-1.84-.01-1.09-.09-1.6-.76-4.93-.55-2.7-.7-4.25-.55-5.33.2-1.38.83-2.38 1.83-2.88.81-.4 1.38-.5 2.93-.44 1.11.04 1.66.12 3.11.43 4.6.97 4.4.93 5.76.94 1.16 0 1.3 0 1.53-.18.38-.28.51-.63.56-1.44.05-.95-.08-1.85-.63-4.6-.6-3.03-.71-3.79-.71-5.07 0-1.6.26-2.44 1.01-3.26.75-.82 2-1.18 3.73-1.09 1.16.06 1.85.18 4.74.8 4.35.93 5.63.91 6.14-.08.4-.8.5-1.65.5-4-.01-2.42-.17-4.1-.67-7.08-.15-.9-.26-1.63-.25-1.64.09-.07 2.25-.46 2.27-.42.08.13.61 3.52.79 4.99.23 2.02.32 5.13.18 6.44a9.26 9.26 0 0 1-.8 2.98 3.76 3.76 0 0 1-1.69 1.5c-1.55.58-2.84.5-7.26-.45-2.62-.56-3.93-.75-4.77-.7-.85.07-1.18.25-1.41.77-.17.38-.18.55-.14 1.6.04.94.15 1.7.55 3.71.65 3.25.78 4.12.78 5.29 0 1.56-.34 2.58-1.1 3.3-1.34 1.3-3.3 1.37-8.11.3-4.32-.94-6-.96-6.37-.06-.35.86-.25 2.12.4 5.4.7 3.5.75 3.83.76 5.2.01 1.46-.17 2.22-.69 2.95-1.12 1.57-3.11 1.87-6.98 1.07-.7-.15-1.96-.4-2.8-.59-2.04-.42-3.37-.56-4.07-.42-.73.14-.91.3-1.08.84-.27.93-.15 2.16.54 5.59.56 2.75.68 3.61.68 4.83 0 1.18-.1 1.78-.43 2.48-.87 1.85-3.43 2.56-8.14 2.26zm154.51 182.84a52.6 52.6 0 0 1-5.42-.68c-2.28-.38-2.28-.38-2.28-.58 0-.17.42-2.08.47-2.12.02-.02.3.02.62.09 3.35.7 7.73 1.13 9.78.95a5.9 5.9 0 0 0 2.24-.47c.6-.27.75-.57.8-1.63.04-1.08-.05-1.7-.67-4.82-.6-3.04-.71-3.94-.65-5.22.1-2.04.84-3.16 2.46-3.7.53-.17.81-.2 1.85-.2 1.38 0 1.6.04 5.1.77 3.76.78 5.01.88 5.73.44.46-.28.6-.7.59-1.84-.01-1.09-.1-1.6-.76-4.93-.55-2.7-.7-4.25-.56-5.33.2-1.38.83-2.38 1.84-2.88.81-.4 1.38-.5 2.92-.44 1.12.04 1.67.12 3.12.42 4.6.98 4.4.94 5.75.95 1.17 0 1.3-.01 1.54-.18.38-.28.51-.63.55-1.45.05-.94-.07-1.84-.62-4.6-.6-3.02-.71-3.78-.71-5.06 0-1.6.26-2.45 1.01-3.26.75-.82 2-1.18 3.73-1.1 1.15.07 1.84.18 4.74.8 4.35.94 5.63.92 6.14-.08.4-.79.5-1.64.5-4-.01-2.41-.17-4.1-.67-7.08-.15-.89-.27-1.62-.25-1.63.08-.07 2.24-.47 2.27-.42.08.13.61 3.52.78 4.99.24 2.02.33 5.13.19 6.43a9.26 9.26 0 0 1-.8 2.99 3.76 3.76 0 0 1-1.69 1.5c-1.55.58-2.84.5-7.27-.45-2.6-.56-3.92-.75-4.77-.7-.85.07-1.17.25-1.4.77-.17.38-.18.54-.14 1.6.04.93.15 1.7.55 3.7.65 3.26.78 4.13.78 5.3 0 1.56-.34 2.58-1.1 3.3-1.35 1.3-3.3 1.37-8.12.3-4.31-.95-5.99-.96-6.36-.06-.35.86-.25 2.12.4 5.4.7 3.5.75 3.83.76 5.2.01 1.45-.17 2.22-.69 2.94-1.12 1.58-3.11 1.88-6.98 1.08l-2.8-.59c-2.04-.42-3.37-.56-4.07-.42-.73.14-.91.29-1.08.84-.27.93-.16 2.16.54 5.59.56 2.75.68 3.61.68 4.83 0 1.18-.1 1.78-.43 2.48-.87 1.85-3.43 2.56-8.14 2.26zM13.94 286.17a52.6 52.6 0 0 1-5.42-.67c-2.28-.39-2.28-.39-2.28-.58 0-.18.42-2.08.47-2.13.02-.02.3.03.62.1 3.35.7 7.73 1.12 9.78.94a5.9 5.9 0 0 0 2.24-.46c.6-.27.75-.57.79-1.64.04-1.07-.04-1.69-.66-4.81-.6-3.04-.72-3.95-.66-5.23.1-2.04.85-3.16 2.46-3.69.54-.17.82-.2 1.86-.2 1.38 0 1.6.03 5.1.77 3.76.78 5 .88 5.73.44.46-.28.59-.7.58-1.85 0-1.08-.09-1.6-.76-4.92-.54-2.7-.7-4.25-.55-5.34.2-1.38.83-2.37 1.83-2.88.82-.4 1.38-.49 2.93-.43 1.12.04 1.66.11 3.12.42 4.59.97 4.39.94 5.75.95 1.16 0 1.3-.01 1.54-.19.37-.27.5-.62.55-1.44.05-.95-.07-1.85-.62-4.6-.6-3.02-.72-3.78-.72-5.06 0-1.6.27-2.45 1.02-3.26.75-.82 2-1.19 3.72-1.1 1.16.07 1.85.18 4.75.8 4.34.93 5.63.91 6.13-.08.4-.8.51-1.64.5-4 0-2.42-.16-4.1-.67-7.08a26.3 26.3 0 0 1-.25-1.64c.1-.06 2.25-.46 2.28-.41.08.12.6 3.51.78 4.98.24 2.02.33 5.14.18 6.44a9.26 9.26 0 0 1-.8 2.98 3.76 3.76 0 0 1-1.68 1.5c-1.56.58-2.84.5-7.27-.45-2.61-.56-3.93-.75-4.77-.69-.85.07-1.17.24-1.4.77-.17.37-.19.54-.14 1.6.03.93.15 1.7.55 3.7.65 3.25.78 4.13.78 5.3 0 1.56-.34 2.58-1.1 3.3-1.35 1.3-3.3 1.36-8.12.3-4.31-.95-6-.97-6.36-.07-.35.86-.26 2.12.4 5.4.7 3.5.75 3.84.76 5.2 0 1.46-.17 2.22-.69 2.95-1.13 1.57-3.12 1.88-6.98 1.07l-2.8-.58c-2.04-.43-3.38-.57-4.07-.43-.73.15-.92.3-1.08.85-.28.93-.16 2.16.54 5.58.55 2.75.67 3.62.67 4.83 0 1.19-.1 1.79-.43 2.49-.86 1.84-3.42 2.55-8.13 2.25zM159.52 184.7a52.6 52.6 0 0 1-5.43-.68c-2.28-.38-2.27-.38-2.27-.58 0-.17.42-2.07.46-2.12.02-.02.3.02.62.1 3.36.7 7.73 1.12 9.78.94a5.9 5.9 0 0 0 2.25-.46c.6-.28.74-.57.79-1.64.04-1.08-.04-1.7-.66-4.81-.6-3.04-.72-3.95-.66-5.23.1-2.04.85-3.16 2.46-3.7.54-.17.82-.2 1.85-.2 1.38 0 1.6.04 5.1.77 3.76.79 5.01.88 5.73.44.47-.28.6-.69.59-1.84-.01-1.08-.09-1.6-.76-4.93-.55-2.7-.7-4.25-.55-5.33.2-1.38.83-2.38 1.83-2.88.81-.4 1.38-.49 2.93-.43 1.11.04 1.66.1 3.11.42 4.6.97 4.4.94 5.76.94 1.16 0 1.3 0 1.53-.18.38-.28.51-.63.56-1.44.05-.95-.07-1.85-.63-4.6-.6-3.03-.71-3.79-.71-5.07 0-1.6.26-2.44 1.01-3.26.76-.81 2-1.18 3.73-1.09 1.16.06 1.85.18 4.75.8 4.34.93 5.62.91 6.13-.08.4-.8.5-1.65.5-4 0-2.42-.17-4.1-.67-7.08-.15-.9-.26-1.63-.25-1.64.09-.07 2.25-.46 2.27-.42.08.13.61 3.52.79 4.99.23 2.02.32 5.13.18 6.44a9.26 9.26 0 0 1-.8 2.98 3.76 3.76 0 0 1-1.69 1.5c-1.55.58-2.84.5-7.26-.45-2.62-.56-3.93-.75-4.77-.69-.85.06-1.18.24-1.41.76-.17.38-.18.55-.14 1.6.04.94.15 1.7.56 3.71.64 3.25.77 4.13.77 5.29 0 1.56-.34 2.58-1.1 3.3-1.34 1.3-3.3 1.37-8.11.3-4.32-.94-6-.96-6.37-.06-.35.86-.25 2.12.4 5.4.7 3.5.75 3.84.76 5.2.01 1.46-.16 2.22-.68 2.95-1.13 1.57-3.12 1.88-6.99 1.07l-2.8-.58c-2.04-.43-3.37-.57-4.07-.43-.73.15-.91.3-1.08.84-.27.93-.15 2.16.54 5.59.56 2.75.68 3.61.68 4.83 0 1.18-.1 1.79-.43 2.48-.87 1.85-3.42 2.56-8.13 2.26zM191.1 22.81a4.39 4.39 0 0 1-1.1-.72c0-.05.73-1.46 1.6-3.12a35.24 35.24 0 0 0 1.56-3.17c-.01-.09-1.26-.8-3.1-1.76a34.98 34.98 0 0 1-3.1-1.74 9.94 9.94 0 0 1 1.24-2.26c.06.01 1.46.74 3.12 1.61 1.66.87 3.1 1.57 3.18 1.56.1-.02.72-1.1 1.76-3.06l1.65-3.12c.03-.08 1.9.8 2.27 1.08.13.09-.06.5-1.49 3.2-.9 1.7-1.62 3.17-1.6 3.25 0 .08.96.64 2.23 1.3l3.14 1.67.93.5-.61 1.16a9.52 9.52 0 0 1-.67 1.17c-.03 0-1.44-.73-3.14-1.62-1.7-.9-3.14-1.63-3.2-1.63-.08 0-.79 1.24-1.78 3.11a89.67 89.67 0 0 1-1.7 3.16c-.03.02-.57-.24-1.2-.57zm-178 117.1a4.38 4.38 0 0 1-1.11-.71c.01-.06.74-1.47 1.61-3.13a35.24 35.24 0 0 0 1.56-3.17c-.02-.08-1.27-.8-3.1-1.76a34.99 34.99 0 0 1-3.1-1.73 9.95 9.95 0 0 1 1.24-2.27c.05.02 1.46.74 3.12 1.62 1.66.87 3.09 1.57 3.17 1.55.1-.02.73-1.1 1.77-3.05l1.64-3.12c.04-.08 1.9.8 2.28 1.08.12.09-.07.5-1.5 3.2-.9 1.7-1.62 3.16-1.6 3.24.01.08.97.64 2.24 1.31l3.14 1.66.92.5-.6 1.16a9.52 9.52 0 0 1-.67 1.18c-.03 0-1.45-.73-3.14-1.63-1.7-.9-3.14-1.63-3.21-1.63-.08 0-.78 1.25-1.77 3.12a89.68 89.68 0 0 1-1.7 3.15c-.04.03-.57-.23-1.2-.56zm137.94 104.86a4.38 4.38 0 0 1-1.1-.72c0-.06.73-1.47 1.6-3.13a35.24 35.24 0 0 0 1.57-3.16c-.02-.1-1.27-.8-3.1-1.77a34.98 34.98 0 0 1-3.1-1.73 9.95 9.95 0 0 1 1.24-2.26c.05 0 1.45.73 3.11 1.6 1.67.88 3.1 1.58 3.18 1.57.1-.02.73-1.11 1.76-3.06l1.65-3.12c.03-.08 1.9.8 2.28 1.08.12.09-.07.5-1.5 3.2-.9 1.7-1.62 3.16-1.6 3.24.01.08.97.64 2.24 1.31l3.13 1.67.93.49-.61 1.17a9.52 9.52 0 0 1-.67 1.17c-.03 0-1.44-.73-3.13-1.63-1.7-.9-3.14-1.62-3.21-1.62-.08 0-.79 1.24-1.77 3.11a89.68 89.68 0 0 1-1.7 3.16c-.04.02-.58-.24-1.2-.57zM235 146.79c-.04-.7-.02-1.3.03-1.31.06-.02 1.64-.14 3.51-.26 1.88-.13 3.46-.28 3.52-.33.06-.06.02-1.5-.12-3.57-.13-1.9-.19-3.5-.14-3.54a9.94 9.94 0 0 1 2.58-.13c.01.05.13 1.63.25 3.5.13 1.87.28 3.46.33 3.52.07.08 1.33.04 3.53-.1l3.52-.22c.08-.01.31 2.05.27 2.5-.01.16-.46.21-3.51.4-1.92.13-3.55.28-3.6.33-.07.05-.04 1.16.05 2.6l.22 3.54.07 1.05-1.32.09c-.72.05-1.33.07-1.34.04-.02-.03-.14-1.61-.26-3.52a57.23 57.23 0 0 0-.29-3.59c-.04-.07-1.47-.02-3.58.12-1.93.13-3.54.21-3.58.2-.04-.02-.1-.61-.14-1.32zm-88.4-9.7a4.39 4.39 0 0 1-1.1-.7c.01-.07.74-1.47 1.61-3.14a35.24 35.24 0 0 0 1.56-3.16c-.02-.1-1.27-.8-3.1-1.77a34.99 34.99 0 0 1-3.1-1.73 9.95 9.95 0 0 1 1.24-2.26c.05 0 1.45.73 3.12 1.6 1.66.88 3.09 1.58 3.17 1.57.1-.02.73-1.1 1.76-3.06a455.4 455.4 0 0 0 1.65-3.12c.04-.08 1.9.8 2.28 1.08.12.09-.07.5-1.5 3.2-.9 1.7-1.62 3.17-1.6 3.24.01.08.97.64 2.24 1.31l3.14 1.67.92.49-.6 1.17a9.52 9.52 0 0 1-.67 1.17c-.03 0-1.45-.73-3.14-1.63-1.7-.9-3.14-1.62-3.21-1.62-.08 0-.78 1.24-1.77 3.11a89.68 89.68 0 0 1-1.7 3.16c-.04.02-.58-.24-1.2-.57zm132.35-95.64a4.39 4.39 0 0 1-1.1-.72c.01-.05.73-1.46 1.6-3.12a35.24 35.24 0 0 0 1.57-3.17c-.02-.09-1.27-.8-3.1-1.76a34.98 34.98 0 0 1-3.1-1.74 9.95 9.95 0 0 1 1.24-2.26c.05.01 1.45.74 3.12 1.61 1.66.87 3.09 1.57 3.17 1.56.1-.02.73-1.1 1.76-3.06.89-1.66 1.63-3.07 1.65-3.12.03-.08 1.9.8 2.28 1.08.12.09-.07.5-1.5 3.2-.9 1.7-1.62 3.17-1.6 3.25.01.08.97.64 2.24 1.3l3.13 1.67.93.49-.6 1.17a9.52 9.52 0 0 1-.67 1.17c-.04 0-1.45-.73-3.14-1.63-1.7-.89-3.14-1.62-3.21-1.62-.08 0-.79 1.24-1.77 3.11a89.69 89.69 0 0 1-1.7 3.16c-.04.02-.58-.24-1.2-.57zM55.52 141.88a52.6 52.6 0 0 1-5.43-.68c-2.28-.39-2.27-.38-2.27-.58 0-.17.42-2.08.47-2.13.01-.01.3.03.62.1 3.35.7 7.72 1.12 9.77.95a5.9 5.9 0 0 0 2.25-.47c.6-.27.74-.57.79-1.64.04-1.07-.04-1.69-.66-4.8-.6-3.05-.72-3.95-.66-5.24.1-2.03.85-3.16 2.46-3.69.54-.17.82-.2 1.85-.2 1.38 0 1.6.04 5.1.77 3.76.78 5.01.88 5.74.44.46-.28.59-.7.58-1.85 0-1.08-.09-1.6-.76-4.92-.55-2.7-.7-4.25-.55-5.33.2-1.39.83-2.38 1.83-2.88.81-.41 1.38-.5 2.93-.44 1.12.04 1.66.11 3.11.42 4.6.97 4.4.94 5.76.95 1.16 0 1.3-.01 1.53-.18.38-.28.51-.63.56-1.45.05-.95-.07-1.85-.63-4.6-.6-3.02-.7-3.78-.7-5.06-.01-1.6.25-2.45 1-3.26.76-.82 2-1.19 3.73-1.1 1.16.07 1.85.18 4.75.8 4.34.93 5.63.92 6.13-.08.4-.8.5-1.64.5-4 0-2.42-.17-4.1-.67-7.08-.15-.89-.26-1.62-.25-1.63.09-.07 2.25-.47 2.28-.42.07.13.6 3.52.78 4.99.23 2.01.32 5.13.18 6.43a9.26 9.26 0 0 1-.8 2.98 3.76 3.76 0 0 1-1.69 1.5c-1.55.58-2.84.5-7.26-.45-2.62-.56-3.93-.75-4.77-.68-.85.06-1.18.23-1.41.76-.17.37-.18.54-.14 1.6.04.93.16 1.7.56 3.7.65 3.26.77 4.13.77 5.3 0 1.56-.34 2.58-1.1 3.3-1.34 1.3-3.3 1.37-8.11.3-4.32-.95-6-.97-6.36-.06-.35.85-.26 2.11.4 5.4.7 3.5.74 3.83.75 5.2.01 1.45-.16 2.21-.68 2.94-1.13 1.57-3.12 1.88-6.99 1.08l-2.8-.59c-2.04-.43-3.37-.57-4.07-.43-.72.15-.91.3-1.08.85-.27.93-.15 2.16.54 5.59.56 2.75.68 3.6.68 4.82 0 1.19-.1 1.79-.43 2.49-.87 1.85-3.42 2.56-8.13 2.26z"/>
  <path fill="rgba(255, 168, 3, 0.07)" d="M196.57 203.58c-.05.12 1.2.34 10.88 2 6.02 1.03 11 1.86 11.06 1.85.06-.01.12-.07.13-.13.02-.1-1.86-21.06-1.94-21.67-.02-.16-.07-.3-.11-.31-.1-.02-19.94 18.1-20.02 18.26zm6.44-1.85c.03-.14 10.98-10.19 11.14-10.22.04 0 .1.09.13.2.03.13.29 2.83.57 6l.54 5.94c0 .08-.04.18-.11.2-.07.04-2.87-.4-6.21-.96-5.38-.9-6.08-1.04-6.06-1.16zM87.67 247c-.01.12 1.24-.03 10.98-1.35 6.05-.82 11.04-1.52 11.1-1.55.06-.03.1-.1.1-.16-.02-.1-8.09-19.54-8.35-20.09-.07-.15-.16-.27-.2-.27-.09.01-13.6 23.24-13.63 23.42zm5.59-3.7c-.02-.13 7.42-13 7.56-13.08.05-.02.13.05.2.16.06.1 1.11 2.6 2.34 5.55l2.28 5.5c.04.08.02.19-.04.23-.06.05-2.85.47-6.21.94-5.41.74-6.11.82-6.13.7zM57.79 185c.11-.06-.79-.95-7.88-7.76-4.4-4.22-8.05-7.7-8.11-7.73-.06-.03-.14-.02-.18.02-.07.08-10.29 18.48-10.56 19.03-.07.15-.11.3-.08.32.06.06 26.66-3.78 26.81-3.88zm-6.37-2.08c-.09.1-14.8 2.27-14.94 2.2-.05-.01-.04-.12 0-.24s1.35-2.5 2.9-5.29l2.88-5.2c.04-.08.13-.13.21-.12.07.02 2.14 1.95 4.6 4.3 3.94 3.76 4.44 4.27 4.35 4.35zM5.5 3c-.12 0 .19 1.22 2.73 10.72 1.58 5.9 2.9 10.76 2.94 10.82.03.05.1.08.17.07.1-.03 18.36-10.5 18.87-10.82.15-.09.26-.2.25-.23C30.43 13.47 5.68 3 5.5 3zm4.37 5.08c.14-.04 13.84 5.72 13.94 5.85.02.03-.04.13-.14.2-.1.08-2.44 1.45-5.2 3.03l-5.17 2.96c-.08.05-.18.04-.24 0-.06-.06-.83-2.78-1.71-6.06-1.42-5.27-1.6-5.95-1.48-5.98zM230.6 66.6c-.12-.03-.13 1.23-.1 11.06 0 6.1.04 11.15.06 11.2.02.07.08.12.14.12.1 0 20.44-5.43 21.02-5.61.16-.05.3-.13.3-.17 0-.09-21.24-16.55-21.42-16.6zm2.93 6.03c.13 0 11.9 9.07 11.96 9.22.02.05-.06.12-.18.17-.11.05-2.73.77-5.81 1.59l-5.75 1.54c-.09.02-.19 0-.23-.07-.04-.07-.09-2.9-.1-6.29-.03-5.45-.01-6.16.1-6.16zm23.06 198.54a8.86 8.86 0 0 0-8.86 8.86 8.86 8.86 0 0 0 8.86 8.86 8.86 8.86 0 0 0 8.86-8.86 8.86 8.86 0 0 0-8.86-8.86zm.01 3.03a5.82 5.82 0 0 1 5.82 5.82 5.82 5.82 0 0 1-5.82 5.82 5.82 5.82 0 0 1-5.82-5.82 5.82 5.82 0 0 1 5.82-5.82zM59.2 33.37a8.86 8.86 0 0 0-8.87 8.86 8.86 8.86 0 0 0 8.86 8.86 8.86 8.86 0 0 0 8.86-8.86 8.86 8.86 0 0 0-8.86-8.86zm0 3.03a5.82 5.82 0 0 1 5.82 5.82 5.82 5.82 0 0 1-5.82 5.82 5.82 5.82 0 0 1-5.82-5.82 5.82 5.82 0 0 1 5.82-5.82zm112.5 40.97a8.86 8.86 0 0 0-8.87 8.86 8.86 8.86 0 0 0 8.86 8.86 8.86 8.86 0 0 0 8.86-8.86 8.86 8.86 0 0 0-8.86-8.86zm0 3.03a5.82 5.82 0 0 1 5.82 5.82 5.82 5.82 0 0 1-5.82 5.82 5.82 5.82 0 0 1-5.82-5.82 5.82 5.82 0 0 1 5.82-5.82zm114.1 54.5a8.86 8.86 0 0 0-8.86 8.86 8.86 8.86 0 0 0 8.86 8.87 8.86 8.86 0 0 0 8.86-8.87 8.86 8.86 0 0 0-8.86-8.86zm0 3.03a5.82 5.82 0 0 1 5.83 5.82 5.82 5.82 0 0 1-5.82 5.82 5.82 5.82 0 0 1-5.82-5.82 5.82 5.82 0 0 1 5.82-5.82z"/>
</svg>
